<?xml version="1.0" encoding="iso-8859-1"?>
<!-- Generator: Adobe Illustrator 21.0.0, SVG Export Plug-In . SVG Version: 6.00 Build 0)  -->
<svg version="1.1" id="Capa_1" xmlns="http://www.w3.org/2000/svg" xmlns:xlink="http://www.w3.org/1999/xlink" x="0px" y="0px"
	 viewBox="0 0 480.001 480.001" style="enable-background:new 0 0 480.001 480.001;" xml:space="preserve">
<g>
	<g>
		<path d="M480,256.002v-32c0-4.418-3.582-8-8-8H352v-160c0-4.418-3.582-8-8-8h-64.888c10.8-10.506,16.892-24.933,16.888-40
			c0-4.418-3.582-8-8-8c-19.687,0.031-37.912,10.398-48,27.304C229.912,10.4,211.687,0.033,192,0.002c-4.418,0-8,3.582-8,8
			c-0.004,15.067,6.088,29.494,16.888,40H136c-4.418,0-8,3.582-8,8v160H8c-4.418,0-8,3.582-8,8v32c0,4.418,3.582,8,8,8h262.704
			l-48,16H104c-2.122,0-4.156,0.844-5.656,2.344L64,316.69l-10.344-10.344c-3.124-3.123-8.188-3.123-11.312,0l-40,40
			c-3.123,3.124-3.123,8.188,0,11.312l120,120c3.124,3.123,8.188,3.123,11.312,0l40-40c3.123-3.124,3.123-8.188,0-11.312l-1.32-1.32
			l46.224-33.024H376c2.002,0,3.932-0.751,5.408-2.104l86.992-79.736c13.118-12.007,15.403-31.836,5.36-46.512
			C477.373,262.875,479.966,259.697,480,256.002z M278.976,17.026c-3.477,14.867-15.085,26.475-29.952,29.952
			C252.501,32.111,264.109,20.503,278.976,17.026z M230.976,46.978c-14.867-3.477-26.475-15.085-29.952-29.952
			C215.891,20.503,227.499,32.111,230.976,46.978z M144,64.002h192v152h-86l68.4-91.2c2.133-2.844,2.133-6.756,0-9.6l-24-32
			c-1.511-2.014-3.882-3.2-6.4-3.2h-96c-2.518,0-4.889,1.186-6.4,3.2l-24,32c-2.133,2.844-2.133,6.756,0,9.6l68.4,91.2h-86V64.002z
			 M202.4,128.002l17.32,47.624L184,128.002H202.4z M184,112.002l12-16h24.688l-16,16H184z M219.416,128.002h41.168L240,184.594
			L219.416,128.002z M227.312,112.002L240,99.314l12.688,12.688H227.312z M275.312,112.002l-16-16H284l12,16H275.312z M296,128.002
			l-35.72,47.624l17.32-47.624H296z M16,248.002v-16h448v16H16z M341.927,268.598c-0.854-1.613-1.844-3.151-2.959-4.596h71.992
			l-54,48h-28.392C344.243,303.705,350.224,284.272,341.927,268.598z M128,460.69L19.312,352.002L48,323.314l108.688,108.688
			L128,460.69z M457.6,298.401l-84.712,77.6H216c-1.667,0-3.291,0.52-4.648,1.488l-50.488,36.064l-85.552-85.552l32-32H224
			c0.859,0.001,1.713-0.137,2.528-0.408l81.84-27.28c8.461-2.839,17.622,1.719,20.461,10.18c2.839,8.461-1.719,17.622-10.18,20.461
			c-0.304,0.102-0.611,0.195-0.921,0.279l-46.8,12.768H248v16h112c1.958,0.001,3.848-0.717,5.312-2.016l64.12-56.992
			c3.616-3.217,8.288-4.994,13.128-4.992h1.656c10.922-0.039,19.808,8.783,19.847,19.704
			C464.083,289.298,461.735,294.637,457.6,298.401z"/>
	</g>
</g>
<g>
	<g>
		<rect x="44.009" y="339.039" transform="matrix(0.7071 -0.7071 0.7071 0.7071 -236.5051 141.0492)" width="16" height="33.944"/>
	</g>
</g>
<g>
	<g>
		<rect x="376" y="32.002" width="16" height="16"/>
	</g>
</g>
<g>
	<g>
		<rect x="392" y="16.002" width="16" height="16"/>
	</g>
</g>
<g>
	<g>
		<rect x="408" y="32.002" width="16" height="16"/>
	</g>
</g>
<g>
	<g>
		<rect x="392" y="48.002" width="16" height="16"/>
	</g>
</g>
<g>
	<g>
		<rect x="464" y="8.002" width="16" height="16"/>
	</g>
</g>
<g>
	<g>
		<rect x="400" y="96.002" width="16" height="16"/>
	</g>
</g>
<g>
	<g>
		<rect x="72" y="88.002" width="16" height="16"/>
	</g>
</g>
<g>
	<g>
		<rect x="72" y="120.002" width="16" height="16"/>
	</g>
</g>
<g>
	<g>
		<rect x="88" y="104.002" width="16" height="16"/>
	</g>
</g>
<g>
	<g>
		<rect x="56" y="104.002" width="16" height="16"/>
	</g>
</g>
<g>
	<g>
		<rect y="48.002" width="16" height="16"/>
	</g>
</g>
<g>
	<g>
		<rect x="72" y="8.002" width="16" height="16"/>
	</g>
</g>
<g>
</g>
<g>
</g>
<g>
</g>
<g>
</g>
<g>
</g>
<g>
</g>
<g>
</g>
<g>
</g>
<g>
</g>
<g>
</g>
<g>
</g>
<g>
</g>
<g>
</g>
<g>
</g>
<g>
</g>
</svg>
